<svg version="1" xmlns="http://www.w3.org/2000/svg" width="933.333" height="933.333" viewBox="0 0 700.000000 700.000000"><path d="M337.5 6.6c-11.3 6.1-24.2 13-43.5 23.2-22.3 11.7-27.6 14.5-28.5 15.2-.5.4-6.6 3.6-13.5 7.2-11.5 6-18 9.4-34.5 18.3-3.3 1.8-10.9 5.9-17 9.1-6 3.2-14.1 7.5-18 9.5l-7 3.8-.3 93.3-.2 93.3-12.8 6.8c-7 3.7-16.7 8.9-21.7 11.5-4.9 2.6-14.4 7.6-21 11.1s-14.7 7.8-18 9.6c-7.3 4-79.4 42.3-92.2 49.1L0 372.5v234.3l28.8 15.3c15.8 8.4 30.5 16.2 32.7 17.4 2.2 1.2 8.3 4.4 13.5 7.2 23.6 12.5 27.9 14.8 33.5 17.8 10.2 5.5 21.6 11.6 31.5 16.8 5.2 2.7 11.3 6 13.5 7.2 2.2 1.2 7.9 4.3 12.7 6.9l8.8 4.7 8.7-4.7c18.3-9.8 21.1-11.3 30.8-16.4 5.5-2.9 11.4-6 13-7 1.7-1 9.3-5 17-9 7.7-4 14.5-7.6 15-8 .6-.4 7.3-4 15-8s14.5-7.6 15-8c.6-.4 6.9-3.8 14-7.5 7.2-3.7 15.3-8 18-9.5 5.8-3.2 13.3-7.2 22.2-11.9l6.2-3.3 13.3 7c12.5 6.5 16 8.4 31.3 16.7 3.3 1.8 9.4 5 13.5 7.2s11.3 6 16 8.5c16.4 8.8 23.6 12.6 34.5 18.3 6.1 3.1 12.4 6.5 14 7.5 1.7.9 8 4.3 14 7.5 14.2 7.4 24.5 12.9 32.1 17.1l6 3.4 7-3.6c3.8-2 10.1-5.3 13.9-7.4 3.9-2 11.5-6.1 17-9 10.2-5.4 19.2-10.2 30-16 3.3-1.8 9.8-5.3 14.5-7.8 12.3-6.4 21.5-11.3 48-25.5 12.9-6.9 28.2-15 34-18.1l10.5-5.5.3-210.4.2-210.4-14.7-7.8c-8.2-4.3-16.2-8.6-17.8-9.5-1.7-.9-7.1-3.8-12-6.5-21.9-11.6-26.4-13.9-32-17-5.6-3-15.5-8.3-33.5-17.8-11.5-6-24-12.7-29.5-15.7-5.5-3.1-14.8-8-30-16-5.5-2.9-13.1-6.9-17-9-3.8-2.1-11.5-6.1-17-9-5.5-2.9-11.3-6-13-7-1.6-.9-8.4-4.5-15-8-6.6-3.4-14.2-7.5-17-9-2.7-1.5-9.5-5.1-15-8-14.2-7.5-24.9-13.2-33-17.5-3.8-2.1-10.8-5.8-15.5-8.3-4.7-2.4-11.2-5.9-14.5-7.7C353.5 1.7 350.2 0 349.9 0c-.2 0-5.8 3-12.4 6.6z"/></svg>