<?xml version="1.0" encoding="UTF-8"?><svg xmlns="http://www.w3.org/2000/svg" xmlns:xlink="http://www.w3.org/1999/xlink" fill-opacity="1" color-rendering="auto" color-interpolation="auto" text-rendering="auto" stroke="black" stroke-linecap="square" width="1896" stroke-miterlimit="10" shape-rendering="auto" stroke-opacity="1" fill="black" stroke-dasharray="none" font-weight="normal" stroke-width="1" height="1690" font-family="'Dialog'" font-style="normal" stroke-linejoin="miter" font-size="12px" stroke-dashoffset="0" image-rendering="auto">
  <!--Generated by ySVG 2.5-->
  <defs id="genericDefs"/>
  <g>
    <defs id="defs1">
      <clipPath clipPathUnits="userSpaceOnUse" id="clipPath1">
        <path d="M0 0 L1896 0 L1896 1690 L0 1690 L0 0 Z"/>
      </clipPath>
      <clipPath clipPathUnits="userSpaceOnUse" id="clipPath2">
        <path d="M-300 -1794 L1596 -1794 L1596 -104 L-300 -104 L-300 -1794 Z"/>
      </clipPath>
    </defs>
    <g fill="rgb(43,255,159)" text-rendering="geometricPrecision" shape-rendering="geometricPrecision" transform="matrix(1,0,0,1,300,1794)" stroke="rgb(43,255,159)">
      <rect x="229.0623" y="-1320.095" clip-path="url(#clipPath2)" width="311.4208" rx="4" ry="4" height="32.0559" stroke="none"/>
    </g>
    <g font-size="10px" stroke-linecap="butt" transform="matrix(1,0,0,1,300,1794)" text-rendering="geometricPrecision" font-family="'Roboto'" shape-rendering="geometricPrecision" stroke-miterlimit="1.45">
      <text x="273.4812" xml:space="preserve" y="-1300.649" clip-path="url(#clipPath2)" stroke="none">Q4: What kind of technologies are you looking for?</text>
    </g>
    <g stroke-linecap="butt" transform="matrix(1,0,0,1,300,1794)" fill="gray" text-rendering="geometricPrecision" shape-rendering="geometricPrecision" stroke="gray" stroke-miterlimit="1.45">
      <rect x="229.0623" y="-1281.3431" clip-path="url(#clipPath2)" fill="none" width="309.3472" rx="4" ry="4" height="62.768"/>
    </g>
    <g font-size="10px" stroke-linecap="butt" transform="matrix(1,0,0,1,300,1794)" text-rendering="geometricPrecision" font-family="'Roboto'" shape-rendering="geometricPrecision" stroke-miterlimit="1.45">
      <text x="284.3023" xml:space="preserve" y="-1258.2599" clip-path="url(#clipPath2)" stroke="none">D1: Business organization software</text>
      <text x="284.3023" xml:space="preserve" y="-1246.5411" clip-path="url(#clipPath2)" stroke="none">D2: Communication- &amp; Collaborationsystems</text>
      <text x="284.3023" xml:space="preserve" y="-1234.8224" clip-path="url(#clipPath2)" stroke="none">D3: Digital Products / Services</text>
    </g>
    <g fill="rgb(43,255,159)" text-rendering="geometricPrecision" shape-rendering="geometricPrecision" transform="matrix(1,0,0,1,300,1794)" stroke="rgb(43,255,159)">
      <rect x="203.4623" y="-1626.5452" clip-path="url(#clipPath2)" width="362.6208" rx="4" ry="4" height="32.0559" stroke="none"/>
    </g>
    <g font-size="10px" stroke-linecap="butt" transform="matrix(1,0,0,1,300,1794)" text-rendering="geometricPrecision" font-family="'Roboto'" shape-rendering="geometricPrecision" stroke-miterlimit="1.45">
      <text x="211.8723" xml:space="preserve" y="-1607.0992" clip-path="url(#clipPath2)" stroke="none">Q2: How many people will approximately work at the Startup 1 year from now?</text>
    </g>
    <g stroke-linecap="butt" transform="matrix(1,0,0,1,300,1794)" fill="gray" text-rendering="geometricPrecision" shape-rendering="geometricPrecision" stroke="gray" stroke-miterlimit="1.45">
      <rect x="229.0623" y="-1589.7133" clip-path="url(#clipPath2)" fill="none" width="309.3472" rx="4" ry="4" height="32.0559"/>
    </g>
    <g font-size="10px" stroke-linecap="butt" transform="matrix(1,0,0,1,300,1794)" text-rendering="geometricPrecision" font-family="'Roboto'" shape-rendering="geometricPrecision" stroke-miterlimit="1.45">
      <text x="343.5235" xml:space="preserve" y="-1570.2673" clip-path="url(#clipPath2)" stroke="none">B1: Range: 1 to 50</text>
    </g>
    <g fill="rgb(43,255,159)" text-rendering="geometricPrecision" shape-rendering="geometricPrecision" transform="matrix(1,0,0,1,300,1794)" stroke="rgb(43,255,159)">
      <rect x="229.0623" y="-1778.4492" clip-path="url(#clipPath2)" width="311.4208" rx="4" ry="4" height="32.0559" stroke="none"/>
    </g>
    <g font-size="10px" stroke-linecap="butt" transform="matrix(1,0,0,1,300,1794)" text-rendering="geometricPrecision" font-family="'Roboto'" shape-rendering="geometricPrecision" stroke-miterlimit="1.45">
      <text x="324.675" xml:space="preserve" y="-1759.0033" clip-path="url(#clipPath2)" stroke="none">Q1: How old is the Startup?</text>
    </g>
    <g stroke-linecap="butt" transform="matrix(1,0,0,1,300,1794)" fill="gray" text-rendering="geometricPrecision" shape-rendering="geometricPrecision" stroke="gray" stroke-miterlimit="1.45">
      <rect x="229.0623" y="-1739.6973" clip-path="url(#clipPath2)" fill="none" width="309.3472" rx="4" ry="4" height="62.768"/>
    </g>
    <g font-size="10px" stroke-linecap="butt" transform="matrix(1,0,0,1,300,1794)" text-rendering="geometricPrecision" font-family="'Roboto'" shape-rendering="geometricPrecision" stroke-miterlimit="1.45">
      <text x="354.605" xml:space="preserve" y="-1704.8954" clip-path="url(#clipPath2)" stroke="none">A1: Text field</text>
    </g>
    <g fill="rgb(43,255,159)" text-rendering="geometricPrecision" shape-rendering="geometricPrecision" transform="matrix(1,0,0,1,300,1794)" stroke="rgb(43,255,159)">
      <rect x="168.8099" y="-1502.6661" clip-path="url(#clipPath2)" width="431.9257" rx="4" ry="4" height="32.0559" stroke="none"/>
    </g>
    <g font-size="10px" stroke-linecap="butt" transform="matrix(1,0,0,1,300,1794)" text-rendering="geometricPrecision" font-family="'Roboto'" shape-rendering="geometricPrecision" stroke-miterlimit="1.45">
      <text x="182.5217" xml:space="preserve" y="-1483.2202" clip-path="url(#clipPath2)" stroke="none">Q3: Order the following points after importance for the tech of your Startup. 1 = high 5 = low</text>
    </g>
    <g stroke-linecap="butt" transform="matrix(1,0,0,1,300,1794)" fill="gray" text-rendering="geometricPrecision" shape-rendering="geometricPrecision" stroke="gray" stroke-miterlimit="1.45">
      <rect x="229.0623" y="-1463.9142" clip-path="url(#clipPath2)" fill="none" width="309.3472" rx="4" ry="4" height="87.568"/>
    </g>
    <g font-size="10px" stroke-linecap="butt" transform="matrix(1,0,0,1,300,1794)" text-rendering="geometricPrecision" font-family="'Roboto'" shape-rendering="geometricPrecision" stroke-miterlimit="1.45">
      <text x="346.6729" xml:space="preserve" y="-1440.1498" clip-path="url(#clipPath2)" stroke="none">C1: low cost</text>
      <text x="346.6729" xml:space="preserve" y="-1428.431" clip-path="url(#clipPath2)" stroke="none">C2: flexibility</text>
      <text x="346.6729" xml:space="preserve" y="-1416.7123" clip-path="url(#clipPath2)" stroke="none">C3: simplicity</text>
      <text x="346.6729" xml:space="preserve" y="-1404.9935" clip-path="url(#clipPath2)" stroke="none">C4: performance</text>
      <text x="346.6729" xml:space="preserve" y="-1393.2748" clip-path="url(#clipPath2)" stroke="none">C5: scalability</text>
    </g>
    <g fill="rgb(43,255,159)" text-rendering="geometricPrecision" shape-rendering="geometricPrecision" transform="matrix(1,0,0,1,300,1794)" stroke="rgb(43,255,159)">
      <rect x="-223.4754" y="-1134.9099" clip-path="url(#clipPath2)" width="391.4208" rx="4" ry="4" height="32.0559" stroke="none"/>
    </g>
    <g font-size="10px" stroke-linecap="butt" transform="matrix(1,0,0,1,300,1794)" text-rendering="geometricPrecision" font-family="'Roboto'" shape-rendering="geometricPrecision" stroke-miterlimit="1.45">
      <text x="-170.6873" xml:space="preserve" y="-1115.4639" clip-path="url(#clipPath2)" stroke="none">Q5: For what tasks do you need business organization software?</text>
    </g>
    <g stroke-linecap="butt" transform="matrix(1,0,0,1,300,1794)" fill="gray" text-rendering="geometricPrecision" shape-rendering="geometricPrecision" stroke="gray" stroke-miterlimit="1.45">
      <rect x="-183.4754" y="-1096.158" clip-path="url(#clipPath2)" fill="none" width="309.3472" rx="4" ry="4" height="87.568"/>
    </g>
    <g font-size="10px" stroke-linecap="butt" transform="matrix(1,0,0,1,300,1794)" text-rendering="geometricPrecision" font-family="'Roboto'" shape-rendering="geometricPrecision" stroke-miterlimit="1.45">
      <text x="-116.0747" xml:space="preserve" y="-1060.6747" clip-path="url(#clipPath2)" stroke="none">E1: enterprise resource planning</text>
      <text x="-116.0747" xml:space="preserve" y="-1048.9559" clip-path="url(#clipPath2)" stroke="none">E2: project management</text>
      <text x="-116.0747" xml:space="preserve" y="-1037.2372" clip-path="url(#clipPath2)" stroke="none">E3: customer relationship management</text>
    </g>
    <g fill="rgb(43,255,159)" text-rendering="geometricPrecision" shape-rendering="geometricPrecision" transform="matrix(1,0,0,1,300,1794)" stroke="rgb(43,255,159)">
      <rect x="188.0255" y="-1134.9099" clip-path="url(#clipPath2)" width="391.4208" rx="4" ry="4" height="32.0559" stroke="none"/>
    </g>
    <g font-size="10px" stroke-linecap="butt" transform="matrix(1,0,0,1,300,1794)" text-rendering="geometricPrecision" font-family="'Roboto'" shape-rendering="geometricPrecision" stroke-miterlimit="1.45">
      <text x="245.1275" xml:space="preserve" y="-1115.4639" clip-path="url(#clipPath2)" stroke="none">Q6: Tick all software that you and the team have experience in.</text>
    </g>
    <g stroke-linecap="butt" transform="matrix(1,0,0,1,300,1794)" fill="gray" text-rendering="geometricPrecision" shape-rendering="geometricPrecision" stroke="gray" stroke-miterlimit="1.45">
      <rect x="228.0255" y="-1096.158" clip-path="url(#clipPath2)" fill="none" width="309.3472" rx="4" ry="4" height="230.4525"/>
    </g>
    <g font-size="10px" stroke-linecap="butt" transform="matrix(1,0,0,1,300,1794)" text-rendering="geometricPrecision" font-family="'Roboto'" shape-rendering="geometricPrecision" stroke-miterlimit="1.45">
      <text x="341.9618" xml:space="preserve" y="-1071.2638" clip-path="url(#clipPath2)" stroke="none">F1: MS Office</text>
      <text x="341.9618" xml:space="preserve" y="-1059.545" clip-path="url(#clipPath2)" stroke="none">F2: Google Suit</text>
      <text x="341.9618" xml:space="preserve" y="-1047.8263" clip-path="url(#clipPath2)" stroke="none">F3: Slack</text>
      <text x="341.9618" xml:space="preserve" y="-1036.1075" clip-path="url(#clipPath2)" stroke="none">F4: Zoom</text>
      <text x="341.9618" xml:space="preserve" y="-1024.3888" clip-path="url(#clipPath2)" stroke="none">F5: Asana</text>
      <text x="341.9618" xml:space="preserve" y="-1012.67" clip-path="url(#clipPath2)" stroke="none">F6: Trello</text>
      <text x="341.9618" xml:space="preserve" y="-1000.9513" clip-path="url(#clipPath2)" stroke="none">F7: Salesforce</text>
      <text x="341.9618" xml:space="preserve" y="-989.2325" clip-path="url(#clipPath2)" stroke="none">F8: HubSpot</text>
      <text x="341.9618" xml:space="preserve" y="-977.5138" clip-path="url(#clipPath2)" stroke="none">F9: Pipedrive</text>
      <text x="341.9618" xml:space="preserve" y="-965.795" clip-path="url(#clipPath2)" stroke="none">F10: Highrise</text>
      <text x="341.9618" xml:space="preserve" y="-954.0763" clip-path="url(#clipPath2)" stroke="none">F11: Jira</text>
      <text x="341.9618" xml:space="preserve" y="-942.3575" clip-path="url(#clipPath2)" stroke="none">F12 Confluence</text>
      <text x="341.9618" xml:space="preserve" y="-930.6388" clip-path="url(#clipPath2)" stroke="none">F13: GitLab</text>
      <text x="341.9618" xml:space="preserve" y="-918.92" clip-path="url(#clipPath2)" stroke="none">F14: SAP</text>
      <text x="341.9618" xml:space="preserve" y="-907.2013" clip-path="url(#clipPath2)" stroke="none">F15: Oracle</text>
      <text x="341.9618" xml:space="preserve" y="-895.4825" clip-path="url(#clipPath2)" stroke="none">F16: AWS</text>
      <text x="341.9618" xml:space="preserve" y="-883.7638" clip-path="url(#clipPath2)" stroke="none">F17: Google Cloud</text>
    </g>
    <g fill="rgb(43,255,159)" text-rendering="geometricPrecision" shape-rendering="geometricPrecision" transform="matrix(1,0,0,1,300,1794)" stroke="rgb(43,255,159)">
      <rect x="609.4463" y="-1134.9099" clip-path="url(#clipPath2)" width="391.4208" rx="4" ry="4" height="32.0559" stroke="none"/>
    </g>
    <g font-size="10px" stroke-linecap="butt" transform="matrix(1,0,0,1,300,1794)" text-rendering="geometricPrecision" font-family="'Roboto'" shape-rendering="geometricPrecision" stroke-miterlimit="1.45">
      <text x="689.8466" xml:space="preserve" y="-1115.4639" clip-path="url(#clipPath2)" stroke="none">Q7: What kind of tech product should be developed?</text>
    </g>
    <g stroke-linecap="butt" transform="matrix(1,0,0,1,300,1794)" fill="gray" text-rendering="geometricPrecision" shape-rendering="geometricPrecision" stroke="gray" stroke-miterlimit="1.45">
      <rect x="649.4463" y="-1096.158" clip-path="url(#clipPath2)" fill="none" width="309.3472" rx="4" ry="4" height="87.568"/>
    </g>
    <g font-size="10px" stroke-linecap="butt" transform="matrix(1,0,0,1,300,1794)" text-rendering="geometricPrecision" font-family="'Roboto'" shape-rendering="geometricPrecision" stroke-miterlimit="1.45">
      <text x="754.1956" xml:space="preserve" y="-1060.6747" clip-path="url(#clipPath2)" stroke="none">G1: Website / WebApp</text>
      <text x="754.1956" xml:space="preserve" y="-1048.9559" clip-path="url(#clipPath2)" stroke="none">G2: Mobile App</text>
      <text x="754.1956" xml:space="preserve" y="-1037.2372" clip-path="url(#clipPath2)" stroke="none">G3: Desktop App</text>
    </g>
    <g fill="rgb(43,255,159)" text-rendering="geometricPrecision" shape-rendering="geometricPrecision" transform="matrix(1,0,0,1,300,1794)" stroke="rgb(43,255,159)">
      <rect x="609.4463" y="-938.6813" clip-path="url(#clipPath2)" width="391.4208" rx="4" ry="4" height="32.0559" stroke="none"/>
    </g>
    <g font-size="10px" stroke-linecap="butt" transform="matrix(1,0,0,1,300,1794)" text-rendering="geometricPrecision" font-family="'Roboto'" shape-rendering="geometricPrecision" stroke-miterlimit="1.45">
      <text x="727.6494" xml:space="preserve" y="-919.2354" clip-path="url(#clipPath2)" stroke="none">Q8: Who will develop the software?</text>
    </g>
    <g fill="rgb(153,204,255)" text-rendering="geometricPrecision" shape-rendering="geometricPrecision" transform="matrix(1,0,0,1,300,1794)" stroke="rgb(153,204,255)">
      <rect x="903.1915" y="-899.9294" clip-path="url(#clipPath2)" width="55.6019" rx="4" ry="4" height="15.9108" stroke="none"/>
    </g>
    <g font-size="10px" stroke-linecap="butt" transform="matrix(1,0,0,1,300,1794)" text-rendering="geometricPrecision" font-family="'Roboto'" shape-rendering="geometricPrecision" stroke-miterlimit="1.45">
      <text x="919.6962" xml:space="preserve" y="-888.556" clip-path="url(#clipPath2)" stroke="none">radio</text>
    </g>
    <g fill="rgb(153,204,255)" text-rendering="geometricPrecision" shape-rendering="geometricPrecision" transform="matrix(1,0,0,1,300,1794)" stroke="rgb(153,204,255)">
      <rect x="903.1915" y="-1079.8985" clip-path="url(#clipPath2)" width="55.6019" rx="4" ry="4" height="15.9108" stroke="none"/>
    </g>
    <g font-size="10px" stroke-linecap="butt" transform="matrix(1,0,0,1,300,1794)" text-rendering="geometricPrecision" font-family="'Roboto'" shape-rendering="geometricPrecision" stroke-miterlimit="1.45">
      <text x="909.6864" xml:space="preserve" y="-1068.5251" clip-path="url(#clipPath2)" stroke="none">checkbox</text>
    </g>
    <g fill="rgb(43,255,159)" text-rendering="geometricPrecision" shape-rendering="geometricPrecision" transform="matrix(1,0,0,1,300,1794)" stroke="rgb(43,255,159)">
      <rect x="609.4463" y="-752.9203" clip-path="url(#clipPath2)" width="391.4208" rx="4" ry="4" height="32.0559" stroke="none"/>
    </g>
    <g font-size="10px" stroke-linecap="butt" transform="matrix(1,0,0,1,300,1794)" text-rendering="geometricPrecision" font-family="'Roboto'" shape-rendering="geometricPrecision" stroke-miterlimit="1.45">
      <text x="647.9106" xml:space="preserve" y="-733.4744" clip-path="url(#clipPath2)" stroke="none">Q9: Which programming languages are mastered by the programmers?</text>
    </g>
    <g stroke-linecap="butt" transform="matrix(1,0,0,1,300,1794)" fill="gray" text-rendering="geometricPrecision" shape-rendering="geometricPrecision" stroke="gray" stroke-miterlimit="1.45">
      <rect x="649.4463" y="-714.1684" clip-path="url(#clipPath2)" fill="none" width="309.3472" rx="4" ry="4" height="87.568"/>
    </g>
    <g font-size="10px" stroke-linecap="butt" transform="matrix(1,0,0,1,300,1794)" text-rendering="geometricPrecision" font-family="'Roboto'" shape-rendering="geometricPrecision" stroke-miterlimit="1.45">
      <text x="674.5129" xml:space="preserve" y="-678.6852" clip-path="url(#clipPath2)" stroke="none">I1: Java, I2: Python, I3: C#, I4: C, I5: C++, I6: Go,</text>
      <text x="674.5129" xml:space="preserve" y="-666.9664" clip-path="url(#clipPath2)" stroke="none">I7: TypeScript, I8: HTML, I9: CSS, I10: JavaScript,</text>
      <text x="674.5129" xml:space="preserve" y="-655.2477" clip-path="url(#clipPath2)" stroke="none">I11: PHP, I12: Rails, I13: Swift, I14: Kotlin, I15: Dart, I16:SQL</text>
    </g>
    <g fill="rgb(153,204,255)" text-rendering="geometricPrecision" shape-rendering="geometricPrecision" transform="matrix(1,0,0,1,300,1794)" stroke="rgb(153,204,255)">
      <rect x="903.1915" y="-698.2576" clip-path="url(#clipPath2)" width="55.6019" rx="4" ry="4" height="15.9108" stroke="none"/>
    </g>
    <g font-size="10px" stroke-linecap="butt" transform="matrix(1,0,0,1,300,1794)" text-rendering="geometricPrecision" font-family="'Roboto'" shape-rendering="geometricPrecision" stroke-miterlimit="1.45">
      <text x="909.6864" xml:space="preserve" y="-686.8842" clip-path="url(#clipPath2)" stroke="none">checkbox</text>
    </g>
    <g fill="rgb(43,255,159)" text-rendering="geometricPrecision" shape-rendering="geometricPrecision" transform="matrix(1,0,0,1,300,1794)" stroke="rgb(43,255,159)">
      <rect x="155.0592" y="-524.3131" clip-path="url(#clipPath2)" width="391.4208" rx="4" ry="4" height="32.0559" stroke="none"/>
    </g>
    <g font-size="10px" stroke-linecap="butt" transform="matrix(1,0,0,1,300,1794)" text-rendering="geometricPrecision" font-family="'Roboto'" shape-rendering="geometricPrecision" stroke-miterlimit="1.45">
      <text x="262.0904" xml:space="preserve" y="-504.8672" clip-path="url(#clipPath2)" stroke="none">Q10: What type of website do you need?</text>
    </g>
    <g stroke-linecap="butt" transform="matrix(1,0,0,1,300,1794)" fill="gray" text-rendering="geometricPrecision" shape-rendering="geometricPrecision" stroke="gray" stroke-miterlimit="1.45">
      <rect x="195.0592" y="-485.5612" clip-path="url(#clipPath2)" fill="none" width="309.3472" rx="4" ry="4" height="87.568"/>
    </g>
    <g font-size="10px" stroke-linecap="butt" transform="matrix(1,0,0,1,300,1794)" text-rendering="geometricPrecision" font-family="'Roboto'" shape-rendering="geometricPrecision" stroke-miterlimit="1.45">
      <text x="263.7708" xml:space="preserve" y="-444.2186" clip-path="url(#clipPath2)" stroke="none">J1: mainly informative</text>
      <text x="263.7708" xml:space="preserve" y="-432.4998" clip-path="url(#clipPath2)" stroke="none">J2: highly interactive (SaaS &amp; WebApp)</text>
    </g>
    <g fill="rgb(43,255,159)" text-rendering="geometricPrecision" shape-rendering="geometricPrecision" transform="matrix(1,0,0,1,300,1794)" stroke="rgb(43,255,159)">
      <rect x="1061.7599" y="-523.2715" clip-path="url(#clipPath2)" width="391.4208" rx="4" ry="4" height="32.0559" stroke="none"/>
    </g>
    <g font-size="10px" stroke-linecap="butt" transform="matrix(1,0,0,1,300,1794)" text-rendering="geometricPrecision" font-family="'Roboto'" shape-rendering="geometricPrecision" stroke-miterlimit="1.45">
      <text x="1157.0698" xml:space="preserve" y="-503.8256" clip-path="url(#clipPath2)" stroke="none">Q14: What purpose does the mobile app has?</text>
    </g>
    <g stroke-linecap="butt" transform="matrix(1,0,0,1,300,1794)" fill="gray" text-rendering="geometricPrecision" shape-rendering="geometricPrecision" stroke="gray" stroke-miterlimit="1.45">
      <rect x="1101.7599" y="-484.5196" clip-path="url(#clipPath2)" fill="none" width="309.3472" rx="4" ry="4" height="87.568"/>
    </g>
    <g font-size="10px" stroke-linecap="butt" transform="matrix(1,0,0,1,300,1794)" text-rendering="geometricPrecision" font-family="'Roboto'" shape-rendering="geometricPrecision" stroke-miterlimit="1.45">
      <text x="1179.307" xml:space="preserve" y="-443.177" clip-path="url(#clipPath2)" stroke="none">M1: mainly informative</text>
      <text x="1179.307" xml:space="preserve" y="-431.4583" clip-path="url(#clipPath2)" stroke="none">M2: highly interactive (Game, Tool)</text>
    </g>
    <g fill="rgb(43,255,159)" text-rendering="geometricPrecision" shape-rendering="geometricPrecision" transform="matrix(1,0,0,1,300,1794)" stroke="rgb(43,255,159)">
      <rect x="607.3727" y="-523.2715" clip-path="url(#clipPath2)" width="391.4208" rx="4" ry="4" height="32.0559" stroke="none"/>
    </g>
    <g font-size="10px" stroke-linecap="butt" transform="matrix(1,0,0,1,300,1794)" text-rendering="geometricPrecision" font-family="'Roboto'" shape-rendering="geometricPrecision" stroke-miterlimit="1.45">
      <text x="666.8502" xml:space="preserve" y="-503.8256" clip-path="url(#clipPath2)" stroke="none">Q13: What platforms will be addressed with the desktop App?</text>
    </g>
    <g stroke-linecap="butt" transform="matrix(1,0,0,1,300,1794)" fill="gray" text-rendering="geometricPrecision" shape-rendering="geometricPrecision" stroke="gray" stroke-miterlimit="1.45">
      <rect x="647.3727" y="-484.5196" clip-path="url(#clipPath2)" fill="none" width="309.3472" rx="4" ry="4" height="87.568"/>
    </g>
    <g font-size="10px" stroke-linecap="butt" transform="matrix(1,0,0,1,300,1794)" text-rendering="geometricPrecision" font-family="'Roboto'" shape-rendering="geometricPrecision" stroke-miterlimit="1.45">
      <text x="756.3383" xml:space="preserve" y="-454.8958" clip-path="url(#clipPath2)" stroke="none">L1: Windows</text>
      <text x="756.3383" xml:space="preserve" y="-443.177" clip-path="url(#clipPath2)" stroke="none">L2: AppleOs</text>
      <text x="756.3383" xml:space="preserve" y="-431.4583" clip-path="url(#clipPath2)" stroke="none">L3: Linux</text>
      <text x="756.3383" xml:space="preserve" y="-419.7395" clip-path="url(#clipPath2)" stroke="none">L4: further platforms</text>
    </g>
    <g fill="rgb(153,204,255)" text-rendering="geometricPrecision" shape-rendering="geometricPrecision" transform="matrix(1,0,0,1,300,1794)" stroke="rgb(153,204,255)">
      <rect x="448.8044" y="-468.6088" clip-path="url(#clipPath2)" width="55.6019" rx="4" ry="4" height="15.9108" stroke="none"/>
    </g>
    <g font-size="10px" stroke-linecap="butt" transform="matrix(1,0,0,1,300,1794)" text-rendering="geometricPrecision" font-family="'Roboto'" shape-rendering="geometricPrecision" stroke-miterlimit="1.45">
      <text x="465.309" xml:space="preserve" y="-457.2354" clip-path="url(#clipPath2)" stroke="none">radio</text>
    </g>
    <g fill="rgb(43,255,159)" text-rendering="geometricPrecision" shape-rendering="geometricPrecision" transform="matrix(1,0,0,1,300,1794)" stroke="rgb(43,255,159)">
      <rect x="-284.3508" y="-301.4302" clip-path="url(#clipPath2)" width="391.4208" rx="4" ry="4" height="32.0559" stroke="none"/>
    </g>
    <g font-size="10px" stroke-linecap="butt" transform="matrix(1,0,0,1,300,1794)" text-rendering="geometricPrecision" font-family="'Roboto'" shape-rendering="geometricPrecision" stroke-miterlimit="1.45">
      <text x="-197.9592" xml:space="preserve" y="-281.9843" clip-path="url(#clipPath2)" stroke="none">Q11: What components should the website have?</text>
    </g>
    <g stroke-linecap="butt" transform="matrix(1,0,0,1,300,1794)" fill="gray" text-rendering="geometricPrecision" shape-rendering="geometricPrecision" stroke="gray" stroke-miterlimit="1.45">
      <rect x="-244.3508" y="-262.6783" clip-path="url(#clipPath2)" fill="none" width="309.3472" rx="4" ry="4" height="87.568"/>
    </g>
    <g font-size="10px" stroke-linecap="butt" transform="matrix(1,0,0,1,300,1794)" text-rendering="geometricPrecision" font-family="'Roboto'" shape-rendering="geometricPrecision" stroke-miterlimit="1.45">
      <text x="-147.9023" xml:space="preserve" y="-233.0544" clip-path="url(#clipPath2)" stroke="none">N1: Shop-System</text>
      <text x="-147.9023" xml:space="preserve" y="-221.3357" clip-path="url(#clipPath2)" stroke="none">N2: User login &amp; Accounts</text>
      <text x="-147.9023" xml:space="preserve" y="-209.6169" clip-path="url(#clipPath2)" stroke="none">N3: Contend Management</text>
      <text x="-147.9023" xml:space="preserve" y="-197.8982" clip-path="url(#clipPath2)" stroke="none">N4: individual Software</text>
    </g>
    <g fill="rgb(153,204,255)" text-rendering="geometricPrecision" shape-rendering="geometricPrecision" transform="matrix(1,0,0,1,300,1794)" stroke="rgb(153,204,255)">
      <rect x="9.3945" y="-262.6783" clip-path="url(#clipPath2)" width="55.6019" rx="4" ry="4" height="15.9108" stroke="none"/>
    </g>
    <g font-size="10px" stroke-linecap="butt" transform="matrix(1,0,0,1,300,1794)" text-rendering="geometricPrecision" font-family="'Roboto'" shape-rendering="geometricPrecision" stroke-miterlimit="1.45">
      <text x="15.8893" xml:space="preserve" y="-251.3049" clip-path="url(#clipPath2)" stroke="none">checkbox</text>
    </g>
    <g fill="rgb(43,255,159)" text-rendering="geometricPrecision" shape-rendering="geometricPrecision" transform="matrix(1,0,0,1,300,1794)" stroke="rgb(43,255,159)">
      <rect x="154.0224" y="-301.4302" clip-path="url(#clipPath2)" width="391.4208" rx="4" ry="4" height="32.0559" stroke="none"/>
    </g>
    <g font-size="10px" stroke-linecap="butt" transform="matrix(1,0,0,1,300,1794)" text-rendering="geometricPrecision" font-family="'Roboto'" shape-rendering="geometricPrecision" stroke-miterlimit="1.45">
      <text x="266.0194" xml:space="preserve" y="-281.9843" clip-path="url(#clipPath2)" stroke="none">Q12: What kind of data will be stored?</text>
    </g>
    <g stroke-linecap="butt" transform="matrix(1,0,0,1,300,1794)" fill="gray" text-rendering="geometricPrecision" shape-rendering="geometricPrecision" stroke="gray" stroke-miterlimit="1.45">
      <rect x="194.0224" y="-262.6783" clip-path="url(#clipPath2)" fill="none" width="309.3472" rx="4" ry="4" height="87.568"/>
    </g>
    <g font-size="10px" stroke-linecap="butt" transform="matrix(1,0,0,1,300,1794)" text-rendering="geometricPrecision" font-family="'Roboto'" shape-rendering="geometricPrecision" stroke-miterlimit="1.45">
      <text x="284.6384" xml:space="preserve" y="-221.3357" clip-path="url(#clipPath2)" stroke="none">O1: mainly structured data</text>
      <text x="284.6384" xml:space="preserve" y="-209.6169" clip-path="url(#clipPath2)" stroke="none">O2: mainly unstructured data</text>
    </g>
    <g fill="rgb(153,204,255)" text-rendering="geometricPrecision" shape-rendering="geometricPrecision" transform="matrix(1,0,0,1,300,1794)" stroke="rgb(153,204,255)">
      <rect x="447.7676" y="-246.5332" clip-path="url(#clipPath2)" width="55.6019" rx="4" ry="4" height="15.9108" stroke="none"/>
    </g>
    <g font-size="10px" stroke-linecap="butt" transform="matrix(1,0,0,1,300,1794)" text-rendering="geometricPrecision" font-family="'Roboto'" shape-rendering="geometricPrecision" stroke-miterlimit="1.45">
      <text x="464.2722" xml:space="preserve" y="-235.1598" clip-path="url(#clipPath2)" stroke="none">radio</text>
    </g>
    <g fill="rgb(153,204,255)" text-rendering="geometricPrecision" shape-rendering="geometricPrecision" transform="matrix(1,0,0,1,300,1794)" stroke="rgb(153,204,255)">
      <rect x="482.8076" y="-1281.3431" clip-path="url(#clipPath2)" width="55.6019" rx="4" ry="4" height="15.9108" stroke="none"/>
    </g>
    <g font-size="10px" stroke-linecap="butt" transform="matrix(1,0,0,1,300,1794)" text-rendering="geometricPrecision" font-family="'Roboto'" shape-rendering="geometricPrecision" stroke-miterlimit="1.45">
      <text x="489.3024" xml:space="preserve" y="-1269.9697" clip-path="url(#clipPath2)" stroke="none">checkbox</text>
    </g>
    <g fill="rgb(153,204,255)" text-rendering="geometricPrecision" shape-rendering="geometricPrecision" transform="matrix(1,0,0,1,300,1794)" stroke="rgb(153,204,255)">
      <rect x="482.8076" y="-1589.7133" clip-path="url(#clipPath2)" width="55.6019" rx="4" ry="4" height="15.9108" stroke="none"/>
    </g>
    <g font-size="10px" stroke-linecap="butt" transform="matrix(1,0,0,1,300,1794)" text-rendering="geometricPrecision" font-family="'Roboto'" shape-rendering="geometricPrecision" stroke-miterlimit="1.45">
      <text x="497.984" xml:space="preserve" y="-1578.3398" clip-path="url(#clipPath2)" stroke="none">range</text>
    </g>
    <g fill="rgb(153,204,255)" text-rendering="geometricPrecision" shape-rendering="geometricPrecision" transform="matrix(1,0,0,1,300,1794)" stroke="rgb(153,204,255)">
      <rect x="474.735" y="-1739.6973" clip-path="url(#clipPath2)" width="63.6745" rx="4" ry="4" height="15.9108" stroke="none"/>
    </g>
    <g font-size="10px" stroke-linecap="butt" transform="matrix(1,0,0,1,300,1794)" text-rendering="geometricPrecision" font-family="'Roboto'" shape-rendering="geometricPrecision" stroke-miterlimit="1.45">
      <text x="477.124" xml:space="preserve" y="-1728.324" clip-path="url(#clipPath2)" stroke="none">number input</text>
    </g>
    <g fill="rgb(153,204,255)" text-rendering="geometricPrecision" shape-rendering="geometricPrecision" transform="matrix(1,0,0,1,300,1794)" stroke="rgb(153,204,255)">
      <rect x="474.735" y="-1463.9142" clip-path="url(#clipPath2)" width="63.6745" rx="4" ry="4" height="15.9108" stroke="none"/>
    </g>
    <g font-size="10px" stroke-linecap="butt" transform="matrix(1,0,0,1,300,1794)" text-rendering="geometricPrecision" font-family="'Roboto'" shape-rendering="geometricPrecision" stroke-miterlimit="1.45">
      <text x="494.8682" xml:space="preserve" y="-1452.5409" clip-path="url(#clipPath2)" stroke="none">order</text>
    </g>
    <g fill="rgb(255,128,122)" text-rendering="geometricPrecision" shape-rendering="geometricPrecision" transform="matrix(1,0,0,1,300,1794)" stroke="rgb(255,128,122)">
      <rect x="70.2699" y="-1096.158" clip-path="url(#clipPath2)" width="55.6019" rx="4" ry="4" height="15.9108" stroke="none"/>
    </g>
    <g font-size="10px" stroke-linecap="butt" transform="matrix(1,0,0,1,300,1794)" text-rendering="geometricPrecision" font-family="'Roboto'" shape-rendering="geometricPrecision" stroke-miterlimit="1.45">
      <text x="87.6509" xml:space="preserve" y="-1084.7845" clip-path="url(#clipPath2)" stroke="none">If D1</text>
    </g>
    <g fill="rgb(255,128,122)" text-rendering="geometricPrecision" shape-rendering="geometricPrecision" transform="matrix(1,0,0,1,300,1794)" stroke="rgb(255,128,122)">
      <rect x="481.7708" y="-1096.158" clip-path="url(#clipPath2)" width="55.6019" rx="4" ry="4" height="15.9108" stroke="none"/>
    </g>
    <g font-size="10px" stroke-linecap="butt" transform="matrix(1,0,0,1,300,1794)" text-rendering="geometricPrecision" font-family="'Roboto'" shape-rendering="geometricPrecision" stroke-miterlimit="1.45">
      <text x="499.1518" xml:space="preserve" y="-1084.7845" clip-path="url(#clipPath2)" stroke="none">If D2</text>
    </g>
    <g fill="rgb(255,128,122)" text-rendering="geometricPrecision" shape-rendering="geometricPrecision" transform="matrix(1,0,0,1,300,1794)" stroke="rgb(255,128,122)">
      <rect x="903.1915" y="-1095.8093" clip-path="url(#clipPath2)" width="55.6019" rx="4" ry="4" height="15.9108" stroke="none"/>
    </g>
    <g font-size="10px" stroke-linecap="butt" transform="matrix(1,0,0,1,300,1794)" text-rendering="geometricPrecision" font-family="'Roboto'" shape-rendering="geometricPrecision" stroke-miterlimit="1.45">
      <text x="920.5726" xml:space="preserve" y="-1084.4359" clip-path="url(#clipPath2)" stroke="none">If D3</text>
    </g>
    <g fill="rgb(255,128,122)" text-rendering="geometricPrecision" shape-rendering="geometricPrecision" transform="matrix(1,0,0,1,300,1794)" stroke="rgb(255,128,122)">
      <rect x="448.8044" y="-484.5196" clip-path="url(#clipPath2)" width="55.6019" rx="4" ry="4" height="15.9108" stroke="none"/>
    </g>
    <g font-size="10px" stroke-linecap="butt" transform="matrix(1,0,0,1,300,1794)" text-rendering="geometricPrecision" font-family="'Roboto'" shape-rendering="geometricPrecision" stroke-miterlimit="1.45">
      <text x="466.0585" xml:space="preserve" y="-473.1462" clip-path="url(#clipPath2)" stroke="none">If G1</text>
    </g>
    <g fill="rgb(255,128,122)" text-rendering="geometricPrecision" shape-rendering="geometricPrecision" transform="matrix(1,0,0,1,300,1794)" stroke="rgb(255,128,122)">
      <rect x="1355.5051" y="-484.5196" clip-path="url(#clipPath2)" width="55.6019" rx="4" ry="4" height="15.9108" stroke="none"/>
    </g>
    <g font-size="10px" stroke-linecap="butt" transform="matrix(1,0,0,1,300,1794)" text-rendering="geometricPrecision" font-family="'Roboto'" shape-rendering="geometricPrecision" stroke-miterlimit="1.45">
      <text x="1372.7592" xml:space="preserve" y="-473.1462" clip-path="url(#clipPath2)" stroke="none">If G2</text>
    </g>
    <g fill="rgb(255,128,122)" text-rendering="geometricPrecision" shape-rendering="geometricPrecision" transform="matrix(1,0,0,1,300,1794)" stroke="rgb(255,128,122)">
      <rect x="901.118" y="-484.5196" clip-path="url(#clipPath2)" width="55.6019" rx="4" ry="4" height="15.9108" stroke="none"/>
    </g>
    <g font-size="10px" stroke-linecap="butt" transform="matrix(1,0,0,1,300,1794)" text-rendering="geometricPrecision" font-family="'Roboto'" shape-rendering="geometricPrecision" stroke-miterlimit="1.45">
      <text x="918.3721" xml:space="preserve" y="-473.1462" clip-path="url(#clipPath2)" stroke="none">If G3</text>
    </g>
    <g fill="rgb(153,204,255)" text-rendering="geometricPrecision" shape-rendering="geometricPrecision" transform="matrix(1,0,0,1,300,1794)" stroke="rgb(153,204,255)">
      <rect x="1355.5051" y="-468.6088" clip-path="url(#clipPath2)" width="55.6019" rx="4" ry="4" height="15.9108" stroke="none"/>
    </g>
    <g font-size="10px" stroke-linecap="butt" transform="matrix(1,0,0,1,300,1794)" text-rendering="geometricPrecision" font-family="'Roboto'" shape-rendering="geometricPrecision" stroke-miterlimit="1.45">
      <text x="1372.0096" xml:space="preserve" y="-457.2354" clip-path="url(#clipPath2)" stroke="none">radio</text>
    </g>
    <g fill="rgb(153,204,255)" text-rendering="geometricPrecision" shape-rendering="geometricPrecision" transform="matrix(1,0,0,1,300,1794)" stroke="rgb(153,204,255)">
      <rect x="901.118" y="-468.6088" clip-path="url(#clipPath2)" width="55.6019" rx="4" ry="4" height="15.9108" stroke="none"/>
    </g>
    <g font-size="10px" stroke-linecap="butt" transform="matrix(1,0,0,1,300,1794)" text-rendering="geometricPrecision" font-family="'Roboto'" shape-rendering="geometricPrecision" stroke-miterlimit="1.45">
      <text x="907.6128" xml:space="preserve" y="-457.2354" clip-path="url(#clipPath2)" stroke="none">checkbox</text>
    </g>
    <g fill="rgb(43,255,159)" text-rendering="geometricPrecision" shape-rendering="geometricPrecision" transform="matrix(1,0,0,1,300,1794)" stroke="rgb(43,255,159)">
      <rect x="1188.6325" y="-301.4302" clip-path="url(#clipPath2)" width="391.4208" rx="4" ry="4" height="32.0559" stroke="none"/>
    </g>
    <g font-size="10px" stroke-linecap="butt" transform="matrix(1,0,0,1,300,1794)" text-rendering="geometricPrecision" font-family="'Roboto'" shape-rendering="geometricPrecision" stroke-miterlimit="1.45">
      <text x="1275.9323" xml:space="preserve" y="-281.9843" clip-path="url(#clipPath2)" stroke="none">Q15: What is more important for the Mobile App?</text>
    </g>
    <g stroke-linecap="butt" transform="matrix(1,0,0,1,300,1794)" fill="gray" text-rendering="geometricPrecision" shape-rendering="geometricPrecision" stroke="gray" stroke-miterlimit="1.45">
      <rect x="1228.6325" y="-262.6783" clip-path="url(#clipPath2)" fill="none" width="309.3472" rx="4" ry="4" height="87.568"/>
    </g>
    <g font-size="10px" stroke-linecap="butt" transform="matrix(1,0,0,1,300,1794)" text-rendering="geometricPrecision" font-family="'Roboto'" shape-rendering="geometricPrecision" stroke-miterlimit="1.45">
      <text x="1273.1888" xml:space="preserve" y="-221.3357" clip-path="url(#clipPath2)" stroke="none">P1: fast, cost &amp; development effective</text>
      <text x="1273.1888" xml:space="preserve" y="-209.6169" clip-path="url(#clipPath2)" stroke="none">P2: high performance &amp; mobile hardware features</text>
    </g>
    <g fill="rgb(153,204,255)" text-rendering="geometricPrecision" shape-rendering="geometricPrecision" transform="matrix(1,0,0,1,300,1794)" stroke="rgb(153,204,255)">
      <rect x="1482.3777" y="-262.6783" clip-path="url(#clipPath2)" width="55.6019" rx="4" ry="4" height="15.9108" stroke="none"/>
    </g>
    <g font-size="10px" stroke-linecap="butt" transform="matrix(1,0,0,1,300,1794)" text-rendering="geometricPrecision" font-family="'Roboto'" shape-rendering="geometricPrecision" stroke-miterlimit="1.45">
      <text x="1498.8823" xml:space="preserve" y="-251.3049" clip-path="url(#clipPath2)" stroke="none">radio</text>
    </g>
    <g fill="rgb(255,128,122)" text-rendering="geometricPrecision" shape-rendering="geometricPrecision" transform="matrix(1,0,0,1,300,1794)" stroke="rgb(255,128,122)">
      <rect x="447.7676" y="-262.444" clip-path="url(#clipPath2)" width="55.6019" rx="4" ry="4" height="15.9108" stroke="none"/>
    </g>
    <g font-size="10px" stroke-linecap="butt" transform="matrix(1,0,0,1,300,1794)" text-rendering="geometricPrecision" font-family="'Roboto'" shape-rendering="geometricPrecision" stroke-miterlimit="1.45">
      <text x="465.6687" xml:space="preserve" y="-251.0706" clip-path="url(#clipPath2)" stroke="none">If J2</text>
    </g>
    <g fill="rgb(43,255,159)" text-rendering="geometricPrecision" shape-rendering="geometricPrecision" transform="matrix(1,0,0,1,300,1794)" stroke="rgb(43,255,159)">
      <rect x="607.3727" y="-245.6838" clip-path="url(#clipPath2)" width="391.4208" rx="4" ry="4" height="32.0559" stroke="none"/>
    </g>
    <g font-size="10px" stroke-linecap="butt" transform="matrix(1,0,0,1,300,1794)" text-rendering="geometricPrecision" font-family="'Roboto'" shape-rendering="geometricPrecision" stroke-miterlimit="1.45">
      <text x="667.1554" xml:space="preserve" y="-226.2379" clip-path="url(#clipPath2)" stroke="none">Q16: Should the app and the website display similar contend?</text>
    </g>
    <g stroke-linecap="butt" transform="matrix(1,0,0,1,300,1794)" fill="gray" text-rendering="geometricPrecision" shape-rendering="geometricPrecision" stroke="gray" stroke-miterlimit="1.45">
      <rect x="647.3727" y="-206.9319" clip-path="url(#clipPath2)" fill="none" width="309.3472" rx="4" ry="4" height="87.568"/>
    </g>
    <g font-size="10px" stroke-linecap="butt" transform="matrix(1,0,0,1,300,1794)" text-rendering="geometricPrecision" font-family="'Roboto'" shape-rendering="geometricPrecision" stroke-miterlimit="1.45">
      <text x="785.1225" xml:space="preserve" y="-165.5893" clip-path="url(#clipPath2)" stroke="none">Q1: Yes</text>
      <text x="785.1225" xml:space="preserve" y="-153.8705" clip-path="url(#clipPath2)" stroke="none">Q2: No</text>
    </g>
    <g fill="rgb(255,128,122)" text-rendering="geometricPrecision" shape-rendering="geometricPrecision" transform="matrix(1,0,0,1,300,1794)" stroke="rgb(255,128,122)">
      <rect x="892.0363" y="-206.9319" clip-path="url(#clipPath2)" width="64.6836" rx="4" ry="4" height="15.9108" stroke="none"/>
    </g>
    <g font-size="10px" stroke-linecap="butt" transform="matrix(1,0,0,1,300,1794)" text-rendering="geometricPrecision" font-family="'Roboto'" shape-rendering="geometricPrecision" stroke-miterlimit="1.45">
      <text x="898.9265" xml:space="preserve" y="-195.5585" clip-path="url(#clipPath2)" stroke="none">If G1 &amp;&amp; G2</text>
    </g>
    <g fill="rgb(153,204,255)" text-rendering="geometricPrecision" shape-rendering="geometricPrecision" transform="matrix(1,0,0,1,300,1794)" stroke="rgb(153,204,255)">
      <rect x="901.118" y="-191.0211" clip-path="url(#clipPath2)" width="55.6019" rx="4" ry="4" height="15.9108" stroke="none"/>
    </g>
    <g font-size="10px" stroke-linecap="butt" transform="matrix(1,0,0,1,300,1794)" text-rendering="geometricPrecision" font-family="'Roboto'" shape-rendering="geometricPrecision" stroke-miterlimit="1.45">
      <text x="917.6226" xml:space="preserve" y="-179.6477" clip-path="url(#clipPath2)" stroke="none">radio</text>
    </g>
    <g fill="rgb(153,204,255)" text-rendering="geometricPrecision" shape-rendering="geometricPrecision" transform="matrix(1,0,0,1,300,1794)" stroke="rgb(153,204,255)">
      <rect x="70.2699" y="-1080.2472" clip-path="url(#clipPath2)" width="55.6019" rx="4" ry="4" height="15.9108" stroke="none"/>
    </g>
    <g font-size="10px" stroke-linecap="butt" transform="matrix(1,0,0,1,300,1794)" text-rendering="geometricPrecision" font-family="'Roboto'" shape-rendering="geometricPrecision" stroke-miterlimit="1.45">
      <text x="76.7647" xml:space="preserve" y="-1068.8738" clip-path="url(#clipPath2)" stroke="none">checkbox</text>
    </g>
    <g fill="rgb(153,204,255)" text-rendering="geometricPrecision" shape-rendering="geometricPrecision" transform="matrix(1,0,0,1,300,1794)" stroke="rgb(153,204,255)">
      <rect x="481.7708" y="-1080.2472" clip-path="url(#clipPath2)" width="55.6019" rx="4" ry="4" height="15.9108" stroke="none"/>
    </g>
    <g font-size="10px" stroke-linecap="butt" transform="matrix(1,0,0,1,300,1794)" text-rendering="geometricPrecision" font-family="'Roboto'" shape-rendering="geometricPrecision" stroke-miterlimit="1.45">
      <text x="488.2656" xml:space="preserve" y="-1068.8738" clip-path="url(#clipPath2)" stroke="none">checkbox</text>
    </g>
    <g fill="rgb(255,128,122)" text-rendering="geometricPrecision" shape-rendering="geometricPrecision" transform="matrix(1,0,0,1,300,1794)" stroke="rgb(255,128,122)">
      <rect x="903.1915" y="-714.1684" clip-path="url(#clipPath2)" width="55.6019" rx="4" ry="4" height="15.9108" stroke="none"/>
    </g>
    <g font-size="10px" stroke-linecap="butt" transform="matrix(1,0,0,1,300,1794)" text-rendering="geometricPrecision" font-family="'Roboto'" shape-rendering="geometricPrecision" stroke-miterlimit="1.45">
      <text x="920.287" xml:space="preserve" y="-702.795" clip-path="url(#clipPath2)" stroke="none">If H1</text>
    </g>
    <g stroke-linecap="butt" transform="matrix(1,0,0,1,300,1794)" fill="gray" text-rendering="geometricPrecision" shape-rendering="geometricPrecision" stroke="gray" stroke-miterlimit="1.45">
      <rect x="649.4463" y="-899.9294" clip-path="url(#clipPath2)" fill="none" width="309.3472" rx="4" ry="4" height="87.568"/>
    </g>
    <g font-size="10px" stroke-linecap="butt" transform="matrix(1,0,0,1,300,1794)" text-rendering="geometricPrecision" font-family="'Roboto'" shape-rendering="geometricPrecision" stroke-miterlimit="1.45">
      <text x="738.4875" xml:space="preserve" y="-858.5868" clip-path="url(#clipPath2)" stroke="none">H1: people from the Startup</text>
      <text x="738.4875" xml:space="preserve" y="-846.868" clip-path="url(#clipPath2)" stroke="none">H2: external service providers</text>
      <path fill="none" d="M384.0685 -1676.9402 L384.5177 -1634.5712" clip-path="url(#clipPath2)"/>
      <path d="M384.6025 -1626.5717 L389.475 -1638.624 L384.5071 -1635.5712 L379.4756 -1638.5179 Z" stroke="none" clip-path="url(#clipPath2)"/>
      <path fill="none" d="M383.9268 -1557.6615 L384.4862 -1510.6941" clip-path="url(#clipPath2)"/>
      <path d="M384.5815 -1502.6947 L389.4382 -1514.7534 L384.4743 -1511.6941 L379.4389 -1514.6343 Z" stroke="none" clip-path="url(#clipPath2)"/>
      <path fill="none" d="M384.127 -1376.3516 L384.5578 -1328.126" clip-path="url(#clipPath2)"/>
      <path d="M384.6292 -1320.1263 L389.5218 -1332.1705 L384.5488 -1329.126 L379.5222 -1332.0812 Z" stroke="none" clip-path="url(#clipPath2)"/>
      <path fill="none" d="M285.2057 -1218.5739 L30.1729 -1137.3372" clip-path="url(#clipPath2)"/>
      <path d="M22.5503 -1134.9091 L35.5018 -1133.7871 L31.1257 -1137.6406 L32.4666 -1143.3153 Z" stroke="none" clip-path="url(#clipPath2)"/>
      <path fill="none" d="M383.7359 -1218.5658 L383.7359 -1142.8956" clip-path="url(#clipPath2)"/>
      <path d="M383.7359 -1134.8956 L388.7359 -1146.8956 L383.7359 -1143.8956 L378.7359 -1146.8956 Z" stroke="none" clip-path="url(#clipPath2)"/>
      <path fill="none" d="M484.6413 -1218.5739 L745.9895 -1137.285" clip-path="url(#clipPath2)"/>
      <path d="M753.6285 -1134.9091 L743.655 -1143.2474 L745.0346 -1137.582 L740.685 -1133.6986 Z" stroke="none" clip-path="url(#clipPath2)"/>
      <path fill="none" d="M804.47 -1008.5742 L804.9643 -946.7213" clip-path="url(#clipPath2)"/>
      <path d="M805.0283 -938.7215 L809.9321 -950.7611 L804.9563 -947.7212 L799.9325 -950.6812 Z" stroke="none" clip-path="url(#clipPath2)"/>
      <path fill="none" d="M681.6788 -626.6045 L403.0996 -526.9962" clip-path="url(#clipPath2)"/>
      <path d="M395.5667 -524.3027 L408.5495 -523.6349 L404.0413 -527.3329 L405.1827 -533.051 Z" stroke="none" clip-path="url(#clipPath2)"/>
      <path fill="none" d="M925.7863 -626.602 L1205.3646 -525.994" clip-path="url(#clipPath2)"/>
      <path d="M1212.8921 -523.2852 L1203.2939 -532.053 L1204.4237 -526.3326 L1199.908 -522.6437 Z" stroke="none" clip-path="url(#clipPath2)"/>
      <path fill="none" d="M803.8417 -626.612 L803.2357 -531.2427" clip-path="url(#clipPath2)"/>
      <path d="M803.1848 -523.2429 L808.261 -535.2109 L803.242 -532.2427 L798.2612 -535.2745 Z" stroke="none" clip-path="url(#clipPath2)"/>
      <path fill="none" d="M227.0022 -397.9972 L-36.1403 -304.1299" clip-path="url(#clipPath2)"/>
      <path d="M-43.6752 -301.442 L-30.6929 -300.7645 L-35.1984 -304.4659 L-34.0527 -310.1831 Z" stroke="none" clip-path="url(#clipPath2)"/>
      <path fill="none" d="M349.7328 -397.9876 L349.7328 -309.4269" clip-path="url(#clipPath2)"/>
      <path d="M349.7328 -301.4269 L354.7328 -313.4269 L349.7328 -310.4269 L344.7328 -313.4269 Z" stroke="none" clip-path="url(#clipPath2)"/>
      <path fill="none" d="M1292.5017 -396.9343 L1366.0509 -307.6161" clip-path="url(#clipPath2)"/>
      <path d="M1371.1362 -301.4404 L1367.368 -313.8823 L1365.4153 -308.3881 L1359.6484 -307.5256 Z" stroke="none" clip-path="url(#clipPath2)"/>
      <path fill="none" d="M1162.3821 -396.9453 L844.7654 -249.0631" clip-path="url(#clipPath2)"/>
      <path d="M837.513 -245.6864 L850.5021 -246.2187 L845.672 -249.4852 L846.2812 -255.2842 Z" stroke="none" clip-path="url(#clipPath2)"/>
      <path fill="none" d="M443.2861 -398.0038 L761.623 -249.0549" clip-path="url(#clipPath2)"/>
      <path d="M768.869 -245.6645 L760.119 -255.2789 L760.7172 -249.4787 L755.8809 -246.2213 Z" stroke="none" clip-path="url(#clipPath2)"/>
      <path fill="none" d="M804.5004 -812.3862 L804.9478 -760.9271" clip-path="url(#clipPath2)"/>
      <path d="M805.0173 -752.9274 L809.9128 -764.9704 L804.9391 -761.9271 L799.9132 -764.8835 Z" stroke="none" clip-path="url(#clipPath2)"/>
      <path fill="none" d="M804.5004 -812.3862 L804.9478 -760.9271" clip-path="url(#clipPath2)"/>
      <path d="M805.0173 -752.9274 L809.9128 -764.9704 L804.9391 -761.9271 L799.9132 -764.8835 Z" stroke="none" clip-path="url(#clipPath2)"/>
    </g>
    <g stroke-linecap="butt" transform="matrix(1,0,0,1,300,1794)" fill="rgb(153,153,153)" text-rendering="geometricPrecision" shape-rendering="geometricPrecision" stroke-dasharray="6,2" stroke="rgb(153,153,153)" stroke-miterlimit="1.45">
      <path fill="none" d="M649.4382 -856.128 L579.7067 -791.7514 L573.0372 -784.4487 L567.7241 -776.1071 L566.7559 -774.2559 L565.0047 -769.8188 L564.3862 -765.3684 L564.9003 -760.9048 L566.5472 -756.4279 L567.9328 -753.621 L573.053 -745.1613 L579.561 -737.7162 L643.6766 -675.9527" clip-path="url(#clipPath2)"/>
      <path d="M649.4382 -670.4025 L644.2647 -682.3288 L642.9564 -676.6465 L637.327 -675.1268 Z" clip-path="url(#clipPath2)" stroke="none"/>
    </g>
  </g>
</svg>
